<svg xmlns="http://www.w3.org/2000/svg" viewBox="0 0 540 120" role="img" aria-labelledby="title desc">
  <title id="title">BUSCARR</title>
  <desc id="desc">Marca BUSCARR com lupa integrada ao último R</desc>
  <text x="2" y="78" fill="#0B2D3A" font-family="Manrope,Arial,sans-serif" font-size="80" font-weight="800">B</text>
  <path d="m5 78 26-26" stroke="#FFF9EF" stroke-width="4" stroke-linecap="round"/>
  <path d="M18 40h12" stroke="#18A999" stroke-width="3" stroke-linecap="round"/>
  <circle cx="32" cy="40" r="3.5" fill="#18A999"/>
  <text x="60" y="76" fill="#0B2D3A" font-family="Manrope,Arial,sans-serif" font-size="72" font-weight="750" letter-spacing="-3" textLength="258" lengthAdjust="spacingAndGlyphs">USCAR</text>
  <g transform="translate(318 15) scale(1.18)">
    <path fill="#0B2D3A" d="M4 0h22c12 0 19 6 19 16 0 6-3 11-8 14l12 18H37L27 33H15v15H4V0Zm11 10v14h10c6 0 9-2 9-7s-3-7-9-7H15Z"/>
    <circle cx="26" cy="17" r="10" fill="#FFF9EF" stroke="#F4B63D" stroke-width="4"/>
    <path d="m33.5 24.5 10 10" stroke="#18A999" stroke-width="4.5" stroke-linecap="round"/>
  </g>
  <text x="8" y="112" fill="#49666D" font-family="Manrope,Arial,sans-serif" font-size="14" font-weight="700" letter-spacing="3.2">CONSULTA E INTELIGÊNCIA VEICULAR</text>
</svg>
